<svg xmlns="http://www.w3.org/2000/svg" width="3013" height="3500" viewBox="0 0 3013 3500">
<rect width="100%" height="100%" fill="#ffffff"/>
<defs><marker id="arrow" markerWidth="10" markerHeight="8" refX="9" refY="4" orient="auto"><path d="M0,0 L10,4 L0,8 Z" fill="#374151"/></marker></defs>
<g transform="translate(-30 10)">
<polyline points="170,245 1510,245" fill="none" stroke="#64748b" stroke-width="2"/>
<ellipse cx="171" cy="246" rx="7" ry="7" stroke="#047857" stroke-width="2" fill="#a7f3d0"/>
<ellipse cx="501" cy="246" rx="7" ry="7" stroke="#dc2626" stroke-width="2" fill="#fee2e2"/>
<ellipse cx="831" cy="246" rx="7" ry="7" stroke="#1e40af" stroke-width="2" fill="#dbeafe" stroke-dasharray="10 8"/>
<ellipse cx="1161" cy="246" rx="7" ry="7" stroke="#c2410c" stroke-width="2" fill="#fed7aa"/>
<ellipse cx="1511" cy="246" rx="7" ry="7" stroke="#047857" stroke-width="2" fill="#a7f3d0"/>
<polyline points="80,325 1620,325" fill="none" stroke="#93c5fd" stroke-width="1" stroke-dasharray="10 8"/>
<ellipse cx="180" cy="490" rx="90" ry="45" stroke="#047857" stroke-width="2" fill="#a7f3d0"/>
<polyline points="275,490 400,490" fill="none" stroke="#047857" stroke-width="2" marker-end="url(#arrow)"/>
<ellipse cx="510" cy="490" rx="105" ry="45" stroke="#c2410c" stroke-width="2" fill="#fed7aa"/>
<polyline points="620,490 725,490" fill="none" stroke="#c2410c" stroke-width="2" marker-end="url(#arrow)"/>
<rect x="730" y="425" width="300" height="130" rx="8" stroke="#dc2626" stroke-width="2" fill="#fee2e2"/>
<polyline points="1035,490 1135,490" fill="none" stroke="#dc2626" stroke-width="2" marker-end="url(#arrow)"/>
<rect x="1140" y="425" width="300" height="130" rx="8" stroke="#1e40af" stroke-width="2" fill="#dbeafe" stroke-dasharray="10 8"/>
<polyline points="1445,490 1525,490" fill="none" stroke="#1e40af" stroke-width="2" stroke-dasharray="10 8" marker-end="url(#arrow)"/>
<ellipse cx="1620" cy="490" rx="90" ry="45" stroke="#1e40af" stroke-width="2" fill="#dbeafe" stroke-dasharray="10 8"/>
<polyline points="80,635 1620,635" fill="none" stroke="#93c5fd" stroke-width="1" stroke-dasharray="10 8"/>
<ellipse cx="200" cy="800" rx="110" ry="45" stroke="#c2410c" stroke-width="2" fill="#fed7aa"/>
<polyline points="315,800 415,800" fill="none" stroke="#c2410c" stroke-width="2" marker-end="url(#arrow)"/>
<rect x="420" y="745" width="240" height="110" rx="8" stroke="#b45309" stroke-width="2" fill="#fef3c7"/>
<polyline points="665,800 760,800" fill="none" stroke="#b45309" stroke-width="2" marker-end="url(#arrow)"/>
<rect x="765" y="735" width="300" height="130" rx="8" stroke="#1e3a5f" stroke-width="2" fill="#60a5fa"/>
<polyline points="1070,800 1165,800" fill="none" stroke="#1e3a5f" stroke-width="2" marker-end="url(#arrow)"/>
<rect x="1170" y="735" width="300" height="130" rx="8" stroke="#1e3a5f" stroke-width="2" fill="#93c5fd"/>
<polyline points="1475,800 1555,800" fill="none" stroke="#1e3a5f" stroke-width="2" marker-end="url(#arrow)"/>
<polygon points="1635,730 1710,800 1635,870 1560,800" stroke="#b45309" stroke-width="2" fill="#fef3c7"/>
<polyline points="1635,875 1635,925 277,925 277,955" fill="none" stroke="#047857" stroke-width="2" marker-end="url(#arrow)"/>
<polyline points="1560,800 1430,800 1430,930 1285,930" fill="none" stroke="#dc2626" stroke-width="2" marker-end="url(#arrow)"/>
<rect x="85" y="955" width="385" height="180" rx="8" stroke="#1e3a5f" stroke-width="2" fill="#93c5fd"/>
<polyline points="475,1045 565,1045" fill="none" stroke="#1e3a5f" stroke-width="2" marker-end="url(#arrow)"/>
<rect x="570" y="975" width="270" height="140" rx="8" stroke="#1e3a5f" stroke-width="2" fill="#60a5fa"/>
<polyline points="845,1045 935,1045" fill="none" stroke="#1e3a5f" stroke-width="2" marker-end="url(#arrow)"/>
<rect x="940" y="975" width="270" height="140" rx="8" stroke="#1e3a5f" stroke-width="2" fill="#3b82f6"/>
<polyline points="1215,1045 1315,1045" fill="none" stroke="#1e3a5f" stroke-width="2" marker-end="url(#arrow)"/>
<polygon points="1415,965 1510,1045 1415,1125 1320,1045" stroke="#b45309" stroke-width="2" fill="#fef3c7"/>
<polyline points="1515,1045 1595,1045" fill="none" stroke="#047857" stroke-width="2" marker-end="url(#arrow)"/>
<ellipse cx="1685" cy="1045" rx="85" ry="55" stroke="#047857" stroke-width="3" fill="#a7f3d0"/>
<polyline points="1415,1128 1415,1208 1285,1208 1285,1258" fill="none" stroke="#dc2626" stroke-width="2" marker-end="url(#arrow)"/>
<rect x="1135" y="1260" width="300" height="130" rx="8" stroke="#b45309" stroke-width="2" fill="#fef3c7"/>
<polyline points="1280,930 1285,1255" fill="none" stroke="#dc2626" stroke-width="2" marker-end="url(#arrow)"/>
<polyline points="1130,1325 540,1325 540,870" fill="none" stroke="#b45309" stroke-width="2" stroke-dasharray="10 8" marker-end="url(#arrow)"/>
<polyline points="1285,1395 1285,1500" fill="none" stroke="#dc2626" stroke-width="2" marker-end="url(#arrow)"/>
<rect x="1085" y="1505" width="400" height="150" rx="8" stroke="#1e40af" stroke-width="2" fill="#dbeafe" stroke-dasharray="10 8"/>
<polyline points="1080,1580 540,1580 540,870" fill="none" stroke="#1e40af" stroke-width="2" stroke-dasharray="10 8" marker-end="url(#arrow)"/>
<polyline points="80,1705 1620,1705" fill="none" stroke="#93c5fd" stroke-width="1" stroke-dasharray="10 8"/>
<rect x="85" y="1800" width="780" height="250" rx="8" stroke="#1e293b" stroke-width="2" fill="#1e293b"/>
<rect x="920" y="1800" width="790" height="250" rx="8" stroke="#047857" stroke-width="2" fill="#a7f3d0"/>
<polyline points="80,2110 1710,2110" fill="none" stroke="#93c5fd" stroke-width="1" stroke-dasharray="10 8"/>
<rect x="80" y="2250" width="470" height="280" rx="8" stroke="#c2410c" stroke-width="2" fill="#fed7aa"/>
<rect x="80" y="2570" width="470" height="260" rx="8" stroke="#1e3a5f" stroke-width="2" fill="#93c5fd"/>
<rect x="590" y="2250" width="520" height="280" rx="8" stroke="#1e3a5f" stroke-width="2" fill="#60a5fa"/>
<rect x="590" y="2570" width="520" height="330" rx="8" stroke="#1e3a5f" stroke-width="2" fill="#3b82f6"/>
<rect x="1150" y="2250" width="500" height="280" rx="8" stroke="#6d28d9" stroke-width="2" fill="#ddd6fe"/>
<polyline points="550,2390 575,2390 575,3000 1160,3000" fill="none" stroke="#c2410c" stroke-width="2" marker-end="url(#arrow)"/>
<polyline points="550,2700 575,2700 575,3000 1160,3000" fill="none" stroke="#1e3a5f" stroke-width="2" marker-end="url(#arrow)"/>
<polyline points="1110,2390 1130,2390 1130,3000 1160,3000" fill="none" stroke="#1e3a5f" stroke-width="2" marker-end="url(#arrow)"/>
<polyline points="1110,2735 1130,2735 1130,3000 1160,3000" fill="none" stroke="#1e3a5f" stroke-width="2" marker-end="url(#arrow)"/>
<polyline points="1400,2535 1400,2990" fill="none" stroke="#6d28d9" stroke-width="2" marker-end="url(#arrow)"/>
<rect x="1160" y="2995" width="480" height="120" rx="8" stroke="#1e3a5f" stroke-width="3" fill="#60a5fa"/>
<polyline points="1400,3120 1400,3205" fill="none" stroke="#1e3a5f" stroke-width="3" marker-end="url(#arrow)"/>
<rect x="100" y="3210" width="1600" height="230" rx="8" stroke="#047857" stroke-width="2" fill="#a7f3d0"/>
<text x="80" y="72" text-anchor="start" fill="#1e40af" font-family="Menlo, PingFang SC, monospace" font-size="32"><tspan x="80" dy="0">logi-mouse 所有事件监听 / 睡眠唤醒 / 设备恢复完整流程</tspan></text>
<text x="82" y="112" text-anchor="start" fill="#64748b" font-family="Menlo, PingFang SC, monospace" font-size="18"><tspan x="82" dy="0">核心原则：保留用户接管意图，睡眠时撤销硬件可信状态，唤醒后从设备枚举开始重新证明接管成功</tspan></text>
<text x="80" y="179" text-anchor="start" fill="#1e40af" font-family="Menlo, PingFang SC, monospace" font-size="24"><tspan x="80" dy="0">1. 生命周期总览</tspan></text>
<text x="177.5" y="223" text-anchor="middle" fill="#047857" font-family="Menlo, PingFang SC, monospace" font-size="18"><tspan x="177.5" dy="0">RUNNING</tspan></text>
<text x="507.5" y="223" text-anchor="middle" fill="#dc2626" font-family="Menlo, PingFang SC, monospace" font-size="18"><tspan x="507.5" dy="0">willSleep</tspan></text>
<text x="837.5" y="223" text-anchor="middle" fill="#1e40af" font-family="Menlo, PingFang SC, monospace" font-size="18"><tspan x="837.5" dy="0">SUSPENDED</tspan></text>
<text x="1167.5" y="223" text-anchor="middle" fill="#c2410c" font-family="Menlo, PingFang SC, monospace" font-size="18"><tspan x="1167.5" dy="0">didWake</tspan></text>
<text x="1512.5" y="223" text-anchor="middle" fill="#047857" font-family="Menlo, PingFang SC, monospace" font-size="18"><tspan x="1512.5" dy="0">RECOVERED</tspan></text>
<text x="856" y="286" text-anchor="middle" fill="#64748b" font-family="Menlo, PingFang SC, monospace" font-size="16"><tspan x="856" dy="0">takeoverRequested 始终保留  ───────────────────────  verifiedTakeoverAxes 在睡眠时清空，只有 SetMode + GetMode 回读一致后恢复</tspan></text>
<text x="80" y="379" text-anchor="start" fill="#1e40af" font-family="Menlo, PingFang SC, monospace" font-size="24"><tspan x="80" dy="0">2. 睡眠阶段：先撤销“可信”，再释放监听</tspan></text>
<text x="180" y="485.5" text-anchor="middle" fill="#374151" font-family="Menlo, PingFang SC, monospace" font-size="18"><tspan x="180" dy="0">RUNNING</tspan><tspan x="180" dy="22.5">监听与接管正常</tspan></text>
<text x="510" y="485.75" text-anchor="middle" fill="#374151" font-family="Menlo, PingFang SC, monospace" font-size="17"><tspan x="510" dy="0">系统事件</tspan><tspan x="510" dy="21.25">NSWorkspace.willSleep</tspan></text>
<text x="880" y="464.5" text-anchor="middle" fill="#374151" font-family="Menlo, PingFang SC, monospace" font-size="17"><tspan x="880" dy="0">立即失效运行态</tspan><tspan x="880" dy="21.25">verifiedTakeoverAxes = none</tspan><tspan x="880" dy="21.25">取消 pending request / retry</tspan><tspan x="880" dy="21.25">重置滚动模型与事件关联</tspan></text>
<text x="1290" y="464.5" text-anchor="middle" fill="#374151" font-family="Menlo, PingFang SC, monospace" font-size="17"><tspan x="1290" dy="0">suspendWithoutRestoring()</tspan><tspan x="1290" dy="21.25">注销 raw callback</tspan><tspan x="1290" dy="21.25">关闭旧 IOHIDManager</tspan><tspan x="1290" dy="21.25">不等待设备响应，不阻塞睡眠</tspan></text>
<text x="1620" y="485.75" text-anchor="middle" fill="#374151" font-family="Menlo, PingFang SC, monospace" font-size="17"><tspan x="1620" dy="0">SUSPENDED</tspan><tspan x="1620" dy="21.25">仅保留用户配置</tspan></text>
<text x="1085" y="591" text-anchor="middle" fill="#dc2626" font-family="Menlo, PingFang SC, monospace" font-size="16"><tspan x="1085" dy="0">禁止：调用当前 stop() 的 restoreSynchronously()；设备可能已离线，容易超时并拖慢系统睡眠</tspan></text>
<text x="80" y="689" text-anchor="start" fill="#1e40af" font-family="Menlo, PingFang SC, monospace" font-size="24"><tspan x="80" dy="0">3. 唤醒阶段：从重新枚举开始证明接管有效</tspan></text>
<text x="200" y="795.75" text-anchor="middle" fill="#374151" font-family="Menlo, PingFang SC, monospace" font-size="17"><tspan x="200" dy="0">系统事件</tspan><tspan x="200" dy="21.25">NSWorkspace.didWake</tspan></text>
<text x="540" y="785.125" text-anchor="middle" fill="#374151" font-family="Menlo, PingFang SC, monospace" font-size="17"><tspan x="540" dy="0">等待 HID / Bluetooth</tspan><tspan x="540" dy="21.25">服务稳定</tspan><tspan x="540" dy="21.25">首次约 500 ms</tspan></text>
<text x="915" y="774.5" text-anchor="middle" fill="#ffffff" font-family="Menlo, PingFang SC, monospace" font-size="17"><tspan x="915" dy="0">创建新监听代际 generation++</tspan><tspan x="915" dy="21.25">新建 IOHIDManager</tspan><tspan x="915" dy="21.25">重新注册 matching / removal</tspan><tspan x="915" dy="21.25">重新安装 raw-report callback</tspan></text>
<text x="1320" y="774.5" text-anchor="middle" fill="#374151" font-family="Menlo, PingFang SC, monospace" font-size="17"><tspan x="1320" dy="0">重新枚举 IORegistry</tspan><tspan x="1320" dy="21.25">读取 VID / PID / usage pairs</tspan><tspan x="1320" dy="21.25">产生全新的 deviceKey</tspan><tspan x="1320" dy="21.25">清除旧 slot / feature index</tspan></text>
<text x="1635" y="796" text-anchor="middle" fill="#374151" font-family="Menlo, PingFang SC, monospace" font-size="16"><tspan x="1635" dy="0">找到可用</tspan><tspan x="1635" dy="20">HID++ 通道？</tspan></text>
<text x="1650" y="901" text-anchor="start" fill="#047857" font-family="Menlo, PingFang SC, monospace" font-size="16"><tspan x="1650" dy="0">是</tspan></text>
<text x="1435" y="786" text-anchor="start" fill="#dc2626" font-family="Menlo, PingFang SC, monospace" font-size="16"><tspan x="1435" dy="0">否</tspan></text>
<text x="110" y="981" text-anchor="start" fill="#374151" font-family="Menlo, PingFang SC, monospace" font-size="16"><tspan x="110" dy="0">按 transport 重新建立路由</tspan><tspan x="110" dy="20"></tspan><tspan x="110" dy="20">USB Receiver</tspan><tspan x="110" dy="20">0xff00 / usage 1，扫描槽位 1...6</tspan><tspan x="110" dy="20"></tspan><tspan x="110" dy="20">Bluetooth</tspan><tspan x="110" dy="20">校验 usage pair 0xff43 / 0x0202</tspan><tspan x="110" dy="20">直连 device index = 0xff</tspan></text>
<text x="705" y="1019.5" text-anchor="middle" fill="#ffffff" font-family="Menlo, PingFang SC, monospace" font-size="17"><tspan x="705" dy="0">重新发现 HID++ Root</tspan><tspan x="705" dy="21.25">主滚轮 0x2121</tspan><tspan x="705" dy="21.25">横向轮 0x2150</tspan><tspan x="705" dy="21.25">禁止复用旧 feature index</tspan></text>
<text x="1075" y="1019.5" text-anchor="middle" fill="#ffffff" font-family="Menlo, PingFang SC, monospace" font-size="17"><tspan x="1075" dy="0">takeoverRequested == true</tspan><tspan x="1075" dy="21.25">才执行硬件写入</tspan><tspan x="1075" dy="21.25">主轮：Diverted + Hi-Res</tspan><tspan x="1075" dy="21.25">横向轮：Diverted</tspan></text>
<text x="1415" y="1031" text-anchor="middle" fill="#374151" font-family="Menlo, PingFang SC, monospace" font-size="16"><tspan x="1415" dy="0">GetMode 回读</tspan><tspan x="1415" dy="20">与目标模式</tspan><tspan x="1415" dy="20">完全一致？</tspan></text>
<text x="1535" y="1030" text-anchor="start" fill="#047857" font-family="Menlo, PingFang SC, monospace" font-size="16"><tspan x="1535" dy="0">是</tspan></text>
<text x="1685" y="1032.625" text-anchor="middle" fill="#374151" font-family="Menlo, PingFang SC, monospace" font-size="17"><tspan x="1685" dy="0">RECOVERED</tspan><tspan x="1685" dy="21.25">恢复 verified axes</tspan><tspan x="1685" dy="21.25">刷新电量与 UI</tspan></text>
<text x="1430" y="1171" text-anchor="start" fill="#dc2626" font-family="Menlo, PingFang SC, monospace" font-size="16"><tspan x="1430" dy="0">否</tspan></text>
<text x="1285" y="1299.5" text-anchor="middle" fill="#374151" font-family="Menlo, PingFang SC, monospace" font-size="17"><tspan x="1285" dy="0">有限恢复重试</tspan><tspan x="1285" dy="21.25">attempt 1: 0.5 s</tspan><tspan x="1285" dy="21.25">attempt 2: 1 s</tspan><tspan x="1285" dy="21.25">attempt 3: 2 s</tspan></text>
<text x="555" y="1306" text-anchor="start" fill="#b45309" font-family="Menlo, PingFang SC, monospace" font-size="16"><tspan x="555" dy="0">未耗尽：回到等待稳定并创建新 generation</tspan></text>
<text x="1300" y="1446" text-anchor="start" fill="#dc2626" font-family="Menlo, PingFang SC, monospace" font-size="16"><tspan x="1300" dy="0">重试耗尽</tspan></text>
<text x="1285" y="1526" text-anchor="middle" fill="#374151" font-family="Menlo, PingFang SC, monospace" font-size="16"><tspan x="1285" dy="0">FAILED / 等待真实生命周期事件</tspan><tspan x="1285" dy="20"></tspan><tspan x="1285" dy="20">Bluetooth matching callback</tspan><tspan x="1285" dy="20">Receiver 0x10 / 0x41 link-up</tspan><tspan x="1285" dy="20">用户重新打开窗口或手动重试</tspan><tspan x="1285" dy="20"></tspan><tspan x="1285" dy="20">不做无限轮询</tspan></text>
<text x="80" y="1759" text-anchor="start" fill="#1e40af" font-family="Menlo, PingFang SC, monospace" font-size="24"><tspan x="80" dy="0">4. 实现边界与并发保护</tspan></text>
<text x="115" y="1841" text-anchor="start" fill="#22c55e" font-family="Menlo, PingFang SC, monospace" font-size="16"><tspan x="115" dy="0">// App lifecycle</tspan><tspan x="115" dy="20">NSWorkspace.willSleepNotification  -&gt; prepareForSystemSleep()</tspan><tspan x="115" dy="20">NSWorkspace.didWakeNotification    -&gt; recoverAfterSystemWake()</tspan><tspan x="115" dy="20"></tspan><tspan x="115" dy="20">// 必须拆分现有 stop()</tspan><tspan x="115" dy="20">stopAndRestoreHardware()      // 用户关闭 / Command-Q</tspan><tspan x="115" dy="20">suspendWithoutRestoring()    // 系统睡眠，不阻塞</tspan><tspan x="115" dy="20"></tspan><tspan x="115" dy="20">// 旧代际回调直接丢弃</tspan><tspan x="115" dy="20">guard callback.generation == currentGeneration else { return }</tspan></text>
<text x="950" y="1841" text-anchor="start" fill="#374151" font-family="Menlo, PingFang SC, monospace" font-size="16"><tspan x="950" dy="0">恢复完成的四条不变量</tspan><tspan x="950" dy="20"></tspan><tspan x="950" dy="20">1. 用户意图 takeoverRequested 未被睡眠清除</tspan><tspan x="950" dy="20">2. 旧 IOHIDDevice、deviceKey、slot、feature index 全部失效</tspan><tspan x="950" dy="20">3. 只有 SetMode 成功且 GetMode 回读一致，才恢复 verifiedTakeoverAxes</tspan><tspan x="950" dy="20">4. 未验证时 CGEvent 抑制始终 fail-open，原生滚动保持可用</tspan><tspan x="950" dy="20"></tspan><tspan x="950" dy="20">附加恢复：重新枚举 DeviceConnectionMonitor、重新启用 CGEvent tap、刷新电量与 UI</tspan></text>
<text x="80" y="2166" text-anchor="start" fill="#1e40af" font-family="Menlo, PingFang SC, monospace" font-size="26"><tspan x="80" dy="0">5. 所有事件监听入口与恢复动作映射</tspan></text>
<text x="82" y="2199" text-anchor="start" fill="#64748b" font-family="Menlo, PingFang SC, monospace" font-size="17"><tspan x="82" dy="0">事件先进入各自监听器，再归一化为少数动作；不要让 UI 连接状态、滚动数据和硬件接管状态互相代替</tspan></text>
<text x="105" y="2286" text-anchor="start" fill="#374151" font-family="Menlo, PingFang SC, monospace" font-size="16"><tspan x="105" dy="0">A. App / 系统电源生命周期</tspan><tspan x="105" dy="20"></tspan><tspan x="105" dy="20">applicationDidFinishLaunching</tspan><tspan x="105" dy="20">  -&gt; startAutomatically()：启动全部监听</tspan><tspan x="105" dy="20"></tspan><tspan x="105" dy="20">NSWorkspace.willSleepNotification</tspan><tspan x="105" dy="20">  -&gt; SUSPEND：立即失效 verified axes + 释放 HID</tspan><tspan x="105" dy="20"></tspan><tspan x="105" dy="20">NSWorkspace.didWakeNotification</tspan><tspan x="105" dy="20">  -&gt; FULL_REBUILD：延迟后重建全部监听</tspan><tspan x="105" dy="20"></tspan><tspan x="105" dy="20">applicationWillTerminate</tspan><tspan x="105" dy="20">  -&gt; RESTORE_AND_STOP：同步恢复硬件后退出</tspan></text>
<text x="105" y="2606" text-anchor="start" fill="#374151" font-family="Menlo, PingFang SC, monospace" font-size="16"><tspan x="105" dy="0">B. 用户 / 窗口事件</tspan><tspan x="105" dy="20"></tspan><tspan x="105" dy="20">平滑滚动开关 ON</tspan><tspan x="105" dy="20">  -&gt; TAKEOVER：发现 feature、SetMode、回读</tspan><tspan x="105" dy="20"></tspan><tspan x="105" dy="20">平滑滚动开关 OFF</tspan><tspan x="105" dy="20">  -&gt; RESTORE：写回接管前模式并回读</tspan><tspan x="105" dy="20"></tspan><tspan x="105" dy="20">showWindow / reopen</tspan><tspan x="105" dy="20">  -&gt; VERIFY：校验模式；无 active route 时触发 reacquire</tspan><tspan x="105" dy="20">  -&gt; refreshBattery()</tspan><tspan x="105" dy="20"></tspan><tspan x="105" dy="20">方向切换 -&gt; 只重置模型，不重建设备</tspan></text>
<text x="615" y="2286" text-anchor="start" fill="#ffffff" font-family="Menlo, PingFang SC, monospace" font-size="16"><tspan x="615" dy="0">C. IORegistry / IOHID 设备生命周期</tspan><tspan x="615" dy="20"></tspan><tspan x="615" dy="20">DeviceConnectionMonitor</tspan><tspan x="615" dy="20">kIOFirstMatchNotification / kIOTerminatedNotification</tspan><tspan x="615" dy="20">  -&gt; 只重新计算 UI 连接徽标，不证明 HID++ 可写</tspan><tspan x="615" dy="20"></tspan><tspan x="615" dy="20">HIDMonitor</tspan><tspan x="615" dy="20">IOHIDManager deviceMatching callback</tspan><tspan x="615" dy="20">  -&gt; 安装 raw callback + considerDevice()</tspan><tspan x="615" dy="20">  -&gt; takeoverRequested 时触发 REACQUIRE</tspan><tspan x="615" dy="20"></tspan><tspan x="615" dy="20">IOHIDManager deviceRemoval callback</tspan><tspan x="615" dy="20">  -&gt; removeDevice() + 清 route/verified axes</tspan><tspan x="615" dy="20">  -&gt; 有替代 transport 时切换，否则 UNAVAILABLE</tspan></text>
<text x="615" y="2606" text-anchor="start" fill="#ffffff" font-family="Menlo, PingFang SC, monospace" font-size="16"><tspan x="615" dy="0">D. IOHIDDevice raw-report callback</tspan><tspan x="615" dy="20">LMHIDPPFilteredReportCallback</tspan><tspan x="615" dy="20"></tspan><tspan x="615" dy="20">report 0x10 / sub-id 0x41 Receiver link event</tspan><tspan x="615" dy="20">  connected -&gt; channelReady + VERIFY / REACQUIRE</tspan><tspan x="615" dy="20">  disconnected -&gt; 清 route/verified axes + UNAVAILABLE</tspan><tspan x="615" dy="20"></tspan><tspan x="615" dy="20">report 0x11 HID++ long report</tspan><tspan x="615" dy="20">  精确响应 -&gt; 唤醒 pending HID++ request</tspan><tspan x="615" dy="20">  0x2121 主轮 -&gt; 更新 route + 模型输出</tspan><tspan x="615" dy="20">  0x2150 横向轮 -&gt; 更新 route + 模型输出</tspan><tspan x="615" dy="20">  battery notification -&gt; 更新 UI</tspan><tspan x="615" dy="20"></tspan><tspan x="615" dy="20">report 0x01 / 0x02 指针等高频报告</tspan><tspan x="615" dy="20">  -&gt; C bridge 丢弃，不进入 Swift</tspan></text>
<text x="1175" y="2286" text-anchor="start" fill="#374151" font-family="Menlo, PingFang SC, monospace" font-size="16"><tspan x="1175" dy="0">E. CGEvent tap / 全局滚动事件</tspan><tspan x="1175" dy="20"></tspan><tspan x="1175" dy="20">scrollWheel</tspan><tspan x="1175" dy="20">  injected marker -&gt; 直接放行，防反馈环</tspan><tspan x="1175" dy="20">  target HID++ correlation 命中 + verified axes</tspan><tspan x="1175" dy="20">    -&gt; 抑制原生事件并放行模型输出</tspan><tspan x="1175" dy="20">  未验证 / 无相关性 -&gt; fail-open，保留原生滚动</tspan><tspan x="1175" dy="20"></tspan><tspan x="1175" dy="20">tapDisabledByTimeout / tapDisabledByUserInput</tspan><tspan x="1175" dy="20">  -&gt; 立即 CGEvent.tapEnable()，当前事件放行</tspan><tspan x="1175" dy="20">  -&gt; 唤醒后若 tap 无效则重建</tspan><tspan x="1175" dy="20"></tspan><tspan x="1175" dy="20">注意：匿名原生 scroll 不能证明来自目标鼠标</tspan><tspan x="1175" dy="20">  -&gt; 不直接触发 HID++ 恢复或槽位扫描</tspan></text>
<text x="1400" y="3039.25" text-anchor="middle" fill="#ffffff" font-family="Menlo, PingFang SC, monospace" font-size="18"><tspan x="1400" dy="0">统一生命周期协调器</tspan><tspan x="1400" dy="22.5">串行化事件 + generation 过滤旧回调</tspan><tspan x="1400" dy="22.5">把事件归一化为下面 7 种动作</tspan></text>
<text x="130" y="3251" text-anchor="start" fill="#374151" font-family="Menlo, PingFang SC, monospace" font-size="16"><tspan x="130" dy="0">归一化动作（所有恢复路径只能从这里进入）</tspan><tspan x="130" dy="20"></tspan><tspan x="130" dy="20">START          创建 DeviceConnectionMonitor + HIDMonitor + CGEventMonitor</tspan><tspan x="130" dy="20">SUSPEND        清 verified axes / pending / route，释放 HID；保留 takeoverRequested</tspan><tspan x="130" dy="20">FULL_REBUILD   重建三个监听器并重新枚举；takeoverRequested=true 时继续 REACQUIRE</tspan><tspan x="130" dy="20">INVALIDATE     设备/链路断开：清 route、feature、battery、verified axes，输出 fail-open</tspan><tspan x="130" dy="20">VERIFY         对现有 route 做 GetMode；漂移则 SetMode + GetMode，失败转 INVALIDATE</tspan><tspan x="130" dy="20">REACQUIRE      新 route 上重新发现 0x2121/0x2150、写模式并回读；有限重试后等待事件</tspan><tspan x="130" dy="20">RESTORE_STOP   用户关闭或退出：写回原模式、回读、注销全部 callback 和 run-loop source</tspan></text>
</g></svg>